<svg width="1650" height="3024" viewBox="0 0 1650 3024" fill="none" xmlns="http://www.w3.org/2000/svg">
<rect width="2986" height="6534" transform="translate(-420 -977)" fill="#1B2B54"/>
<path opacity="0.5" d="M2290 0H640L2290 2552V0Z" fill="url(#paint0_linear)"/>
<path opacity="0.5" d="M2566 -92H916L2566 2460V-92Z" fill="url(#paint1_linear)"/>
<g opacity="0.2">
<path d="M1607.74 754.671L2099 -4.00064H1801.61L1304.5 758.511L1782.77 1517H2099L1607.74 754.671Z" fill="url(#paint2_linear)"/>
<path d="M1001.44 754.671L510 -4.00064H807.389L1304.5 758.511L826.227 1517H510L1001.44 754.671Z" fill="url(#paint3_linear)"/>
<path d="M1498.37 -4.00064C1498.37 102.056 1411.49 187.999 1304.5 187.999C1197.32 187.999 1110.63 102.056 1110.63 -4.00064C1110.63 -110.057 1197.51 -196 1304.5 -196C1411.49 -196 1498.37 -110.057 1498.37 -4.00064Z" fill="url(#paint4_linear)"/>
</g>
<path opacity="0.05" d="M1139.91 373.808L1139.49 373.536L1139.32 373.807L1139.49 374.078L1139.91 373.808ZM1838 -704.188L1838.42 -703.917L1838.92 -704.688H1838V-704.188ZM1415.4 -704.188V-704.688H1415.13L1414.99 -704.461L1415.4 -704.188ZM1388.64 1457L1388.21 1457.27L1388.36 1457.5H1388.64V1457ZM1838 1457V1457.5H1838.92L1838.42 1456.73L1838 1457ZM278.348 373.808L278.768 374.079L278.943 373.807L278.767 373.536L278.348 373.808ZM-420 -704.188V-704.688H-420.92L-420.42 -703.916L-420 -704.188ZM2.59523 -704.188L3.01407 -704.461L2.86612 -704.688H2.59523V-704.188ZM29.3647 1457V1457.5H29.6406L29.7877 1457.27L29.3647 1457ZM-420 1457L-420.42 1456.73L-420.917 1457.5H-420V1457ZM1140.33 374.079L1838.42 -703.917L1837.58 -704.46L1139.49 373.536L1140.33 374.079ZM1838 -704.688H1415.4V-703.688H1838V-704.688ZM1414.99 -704.461L708.581 378.991L709.419 379.537L1415.82 -703.915L1414.99 -704.461ZM708.577 379.531L1388.21 1457.27L1389.06 1456.73L709.423 378.997L708.577 379.531ZM1388.64 1457.5H1838V1456.5H1388.64V1457.5ZM1838.42 1456.73L1140.33 373.537L1139.49 374.078L1837.58 1457.27L1838.42 1456.73ZM278.767 373.536L-419.58 -704.46L-420.42 -703.916L277.928 374.079L278.767 373.536ZM-420 -703.688H2.59523V-704.688H-420V-703.688ZM2.17639 -703.915L708.581 379.537L709.419 378.991L3.01407 -704.461L2.17639 -703.915ZM708.577 378.997L28.9418 1456.73L29.7877 1457.27L709.423 379.531L708.577 378.997ZM29.3647 1456.5H-420V1457.5H29.3647V1456.5ZM-419.58 1457.27L278.768 374.079L277.928 373.537L-420.42 1456.73L-419.58 1457.27ZM983.993 -704.188C983.993 -553.773 860.769 -431.877 709 -431.877V-430.877C861.312 -430.877 984.993 -553.211 984.993 -704.188H983.993ZM709 -431.877C556.971 -431.877 434.007 -553.773 434.007 -704.188H433.007C433.007 -553.212 556.427 -430.877 709 -430.877V-431.877ZM434.007 -704.188C434.007 -854.603 557.23 -976.5 709 -976.5V-977.5C556.688 -977.5 433.007 -855.165 433.007 -704.188H434.007ZM709 -976.5C860.769 -976.5 983.993 -854.603 983.993 -704.188H984.993C984.993 -855.165 861.312 -977.5 709 -977.5V-976.5Z" fill="#E8EAEE"/>
<path opacity="0.1" d="M1169.91 533.808L1169.49 533.536L1169.32 533.807L1169.49 534.078L1169.91 533.808ZM1868 -544.188L1868.42 -543.917L1868.92 -544.688H1868V-544.188ZM1445.4 -544.188V-544.688H1445.13L1444.99 -544.461L1445.4 -544.188ZM1418.64 1617L1418.21 1617.27L1418.36 1617.5H1418.64V1617ZM1868 1617V1617.5H1868.92L1868.42 1616.73L1868 1617ZM308.348 533.808L308.768 534.078L308.943 533.807L308.767 533.536L308.348 533.808ZM-390 -544.188V-544.688H-390.92L-390.42 -543.916L-390 -544.188ZM32.5952 -544.188L33.0141 -544.461L32.8661 -544.688H32.5952V-544.188ZM59.3647 1617V1617.5H59.6406L59.7877 1617.27L59.3647 1617ZM-390 1617L-390.42 1616.73L-390.917 1617.5H-390V1617ZM1170.33 534.079L1868.42 -543.917L1867.58 -544.46L1169.49 533.536L1170.33 534.079ZM1868 -544.688H1445.4V-543.688H1868V-544.688ZM1444.99 -544.461L738.581 538.991L739.419 539.537L1445.82 -543.915L1444.99 -544.461ZM738.577 539.531L1418.21 1617.27L1419.06 1616.73L739.423 538.997L738.577 539.531ZM1418.64 1617.5H1868V1616.5H1418.64V1617.5ZM1868.42 1616.73L1170.33 533.537L1169.49 534.078L1867.58 1617.27L1868.42 1616.73ZM308.767 533.536L-389.58 -544.46L-390.42 -543.916L307.928 534.079L308.767 533.536ZM-390 -543.688H32.5952V-544.688H-390V-543.688ZM32.1764 -543.915L738.581 539.537L739.419 538.991L33.0141 -544.461L32.1764 -543.915ZM738.577 538.997L58.9418 1616.73L59.7877 1617.27L739.423 539.531L738.577 538.997ZM59.3647 1616.5H-390V1617.5H59.3647V1616.5ZM-389.58 1617.27L308.768 534.078L307.928 533.537L-390.42 1616.73L-389.58 1617.27ZM1013.99 -544.188C1013.99 -393.773 890.769 -271.877 739 -271.877V-270.877C891.312 -270.877 1014.99 -393.211 1014.99 -544.188H1013.99ZM739 -271.877C586.971 -271.877 464.007 -393.773 464.007 -544.188H463.007C463.007 -393.212 586.427 -270.877 739 -270.877V-271.877ZM464.007 -544.188C464.007 -694.603 587.23 -816.5 739 -816.5V-817.5C586.688 -817.5 463.007 -695.165 463.007 -544.188H464.007ZM739 -816.5C890.769 -816.5 1013.99 -694.603 1013.99 -544.188H1014.99C1014.99 -695.165 891.312 -817.5 739 -817.5V-816.5Z" fill="#E8EAEE"/>
<path opacity="0.5" d="M-83 2187H2096L-83 5557V2187Z" fill="url(#paint5_linear)"/>
<path opacity="0.5" d="M0 2192H1650L0 4744V2192Z" fill="url(#paint6_linear)"/>
<g opacity="0.1">
<path d="M518.259 2588.67L27 1830H324.389L821.5 2592.51L343.227 3351H27L518.259 2588.67Z" fill="url(#paint7_linear)"/>
<path d="M1124.56 2588.67L1616 1830H1318.61L821.5 2592.51L1299.77 3351H1616L1124.56 2588.67Z" fill="url(#paint8_linear)"/>
<path d="M627.63 1830C627.63 1936.06 714.506 2022 821.5 2022C928.677 2022 1015.37 1936.06 1015.37 1830C1015.37 1723.94 928.494 1638 821.5 1638C714.506 1638 627.63 1723.94 627.63 1830Z" fill="url(#paint9_linear)"/>
</g>
<path opacity="0.1" d="M726.088 2777.81L726.508 2777.54L726.683 2777.81L726.508 2778.08L726.088 2777.81ZM28 1699.81L27.5803 1700.08L27.0805 1699.31H28V1699.81ZM450.595 1699.81V1699.31H450.866L451.014 1699.54L450.595 1699.81ZM477.365 3861L477.788 3861.27L477.641 3861.5H477.365V3861ZM28 3861V3861.5H27.0829L27.5797 3860.73L28 3861ZM1587.65 2777.81L1587.23 2778.08L1587.06 2777.81L1587.23 2777.54L1587.65 2777.81ZM2286 1699.81V1699.31H2286.92L2286.42 1700.08L2286 1699.81ZM1863.4 1699.81L1862.99 1699.54L1863.13 1699.31H1863.4V1699.81ZM1836.64 3861V3861.5H1836.36L1836.21 3861.27L1836.64 3861ZM2286 3861L2286.42 3860.73L2286.92 3861.5H2286V3861ZM725.668 2778.08L27.5803 1700.08L28.4197 1699.54L726.508 2777.54L725.668 2778.08ZM28 1699.31H450.595V1700.31H28V1699.31ZM451.014 1699.54L1157.42 2782.99L1156.58 2783.54L450.176 1700.08L451.014 1699.54ZM1157.42 2783.53L477.788 3861.27L476.942 3860.73L1156.58 2783L1157.42 2783.53ZM477.365 3861.5H28V3860.5H477.365V3861.5ZM27.5797 3860.73L725.668 2777.54L726.508 2778.08L28.4202 3861.27L27.5797 3860.73ZM1587.23 2777.54L2285.58 1699.54L2286.42 1700.08L1588.07 2778.08L1587.23 2777.54ZM2286 1700.31H1863.4V1699.31H2286V1700.31ZM1863.82 1700.08L1157.42 2783.54L1156.58 2782.99L1862.99 1699.54L1863.82 1700.08ZM1157.42 2783L1837.06 3860.73L1836.21 3861.27L1156.58 2783.53L1157.42 2783ZM1836.64 3860.5H2286V3861.5H1836.64V3860.5ZM2285.58 3861.27L1587.23 2778.08L1588.07 2777.54L2286.42 3860.73L2285.58 3861.27ZM882.007 1699.81C882.007 1850.23 1005.23 1972.12 1157 1972.12V1973.12C1004.69 1973.12 881.007 1850.79 881.007 1699.81H882.007ZM1157 1972.12C1309.03 1972.12 1431.99 1850.23 1431.99 1699.81H1432.99C1432.99 1850.79 1309.57 1973.12 1157 1973.12V1972.12ZM1431.99 1699.81C1431.99 1549.4 1308.77 1427.5 1157 1427.5V1426.5C1309.31 1426.5 1432.99 1548.83 1432.99 1699.81H1431.99ZM1157 1427.5C1005.23 1427.5 882.007 1549.4 882.007 1699.81H881.007C881.007 1548.83 1004.69 1426.5 1157 1426.5V1427.5Z" fill="#E8EAEE"/>
<path opacity="0.05" d="M756.088 2967.81L756.508 2967.54L756.683 2967.81L756.508 2968.08L756.088 2967.81ZM58 1889.81L57.5803 1890.08L57.0805 1889.31H58V1889.81ZM480.595 1889.81V1889.31H480.866L481.014 1889.54L480.595 1889.81ZM507.365 4051L507.788 4051.27L507.641 4051.5H507.365V4051ZM58 4051V4051.5H57.0829L57.5797 4050.73L58 4051ZM1617.65 2967.81L1617.23 2968.08L1617.06 2967.81L1617.23 2967.54L1617.65 2967.81ZM2316 1889.81V1889.31H2316.92L2316.42 1890.08L2316 1889.81ZM1893.4 1889.81L1892.99 1889.54L1893.13 1889.31H1893.4V1889.81ZM1866.64 4051V4051.5H1866.36L1866.21 4051.27L1866.64 4051ZM2316 4051L2316.42 4050.73L2316.92 4051.5H2316V4051ZM755.668 2968.08L57.5803 1890.08L58.4197 1889.54L756.508 2967.54L755.668 2968.08ZM58 1889.31H480.595V1890.31H58V1889.31ZM481.014 1889.54L1187.42 2972.99L1186.58 2973.54L480.176 1890.08L481.014 1889.54ZM1187.42 2973.53L507.788 4051.27L506.942 4050.73L1186.58 2973L1187.42 2973.53ZM507.365 4051.5H58V4050.5H507.365V4051.5ZM57.5797 4050.73L755.668 2967.54L756.508 2968.08L58.4202 4051.27L57.5797 4050.73ZM1617.23 2967.54L2315.58 1889.54L2316.42 1890.08L1618.07 2968.08L1617.23 2967.54ZM2316 1890.31H1893.4V1889.31H2316V1890.31ZM1893.82 1890.08L1187.42 2973.54L1186.58 2972.99L1892.99 1889.54L1893.82 1890.08ZM1187.42 2973L1867.06 4050.73L1866.21 4051.27L1186.58 2973.53L1187.42 2973ZM1866.64 4050.5H2316V4051.5H1866.64V4050.5ZM2315.58 4051.27L1617.23 2968.08L1618.07 2967.54L2316.42 4050.73L2315.58 4051.27ZM912.007 1889.81C912.007 2040.23 1035.23 2162.12 1187 2162.12V2163.12C1034.69 2163.12 911.007 2040.79 911.007 1889.81H912.007ZM1187 2162.12C1339.03 2162.12 1461.99 2040.23 1461.99 1889.81H1462.99C1462.99 2040.79 1339.57 2163.12 1187 2163.12V2162.12ZM1461.99 1889.81C1461.99 1739.4 1338.77 1617.5 1187 1617.5V1616.5C1339.31 1616.5 1462.99 1738.83 1462.99 1889.81H1461.99ZM1187 1617.5C1035.23 1617.5 912.007 1739.4 912.007 1889.81H911.007C911.007 1738.83 1034.69 1616.5 1187 1616.5V1617.5Z" fill="#E8EAEE"/>
<path opacity="0.4" d="M5 -92H693L5 972V-92Z" fill="url(#paint10_linear)"/>
<defs>
<linearGradient id="paint0_linear" x1="1465" y1="1.8686e-05" x2="1807" y2="1540" gradientUnits="userSpaceOnUse">
<stop stop-color="white" stop-opacity="0.1"/>
<stop offset="1" stop-color="#1B2B54" stop-opacity="0"/>
</linearGradient>
<linearGradient id="paint1_linear" x1="1741" y1="-92" x2="2083" y2="1448" gradientUnits="userSpaceOnUse">
<stop stop-color="white" stop-opacity="0.1"/>
<stop offset="1" stop-color="#1B2B54" stop-opacity="0"/>
</linearGradient>
<linearGradient id="paint2_linear" x1="1304.5" y1="960" x2="1304.5" y2="1517" gradientUnits="userSpaceOnUse">
<stop stop-color="#767F98"/>
<stop offset="1" stop-color="#767F98" stop-opacity="0"/>
</linearGradient>
<linearGradient id="paint3_linear" x1="1304.5" y1="960" x2="1304.5" y2="1517" gradientUnits="userSpaceOnUse">
<stop stop-color="#767F98"/>
<stop offset="1" stop-color="#767F98" stop-opacity="0"/>
</linearGradient>
<linearGradient id="paint4_linear" x1="1304.5" y1="960" x2="1304.5" y2="1517" gradientUnits="userSpaceOnUse">
<stop stop-color="#767F98"/>
<stop offset="1" stop-color="#767F98" stop-opacity="0"/>
</linearGradient>
<linearGradient id="paint5_linear" x1="1006.5" y1="2187" x2="554.901" y2="4220.63" gradientUnits="userSpaceOnUse">
<stop stop-color="white" stop-opacity="0.1"/>
<stop offset="1" stop-color="#1B2B54" stop-opacity="0"/>
</linearGradient>
<linearGradient id="paint6_linear" x1="825" y1="2192" x2="483" y2="3732" gradientUnits="userSpaceOnUse">
<stop stop-color="white" stop-opacity="0.1"/>
<stop offset="1" stop-color="#1B2B54" stop-opacity="0"/>
</linearGradient>
<linearGradient id="paint7_linear" x1="821.5" y1="2794" x2="821.5" y2="3351" gradientUnits="userSpaceOnUse">
<stop stop-color="#767F98"/>
<stop offset="1" stop-color="#767F98" stop-opacity="0"/>
</linearGradient>
<linearGradient id="paint8_linear" x1="821.5" y1="2794" x2="821.5" y2="3351" gradientUnits="userSpaceOnUse">
<stop stop-color="#767F98"/>
<stop offset="1" stop-color="#767F98" stop-opacity="0"/>
</linearGradient>
<linearGradient id="paint9_linear" x1="821.5" y1="2794" x2="821.5" y2="3351" gradientUnits="userSpaceOnUse">
<stop stop-color="#767F98"/>
<stop offset="1" stop-color="#767F98" stop-opacity="0"/>
</linearGradient>
<linearGradient id="paint10_linear" x1="349" y1="-92" x2="206.424" y2="550.075" gradientUnits="userSpaceOnUse">
<stop stop-color="#1B2B54"/>
<stop offset="1" stop-color="#1B2B54" stop-opacity="0"/>
</linearGradient>
</defs>
</svg>
